<?xml version="1.0" encoding="UTF-8" standalone="no"?><svg xmlns="http://www.w3.org/2000/svg" xmlns:xlink= "http://www.w3.org/1999/xlink" width="600" height="390" style="overflow: hidden;" aria-label="A chart."><defs id="_ABSTRACT_RENDERER_ID_23"><filter id="_ABSTRACT_RENDERER_ID_24"><feGaussianBlur in="SourceAlpha" stdDeviation="2"></feGaussianBlur><feOffset dx="1" dy="1"></feOffset><feComponentTransfer><feFuncA type="linear" slope="0.1"></feFuncA></feComponentTransfer><feMerge><feMergeNode></feMergeNode><feMergeNode in="SourceGraphic"></feMergeNode></feMerge></filter></defs><rect x="0" y="0" width="600" height="390" stroke="none" stroke-width="0" fill="#ffffff"></rect><g><text text-anchor="start" x="115" y="52.05" font-family="Arial" font-size="13" font-weight="bold" stroke="none" stroke-width="0" fill="#000000">Languages</text><rect x="115" y="41" width="371" height="13" stroke="none" stroke-width="0" fill-opacity="0" fill="#ffffff"></rect></g><g><path d="M301,196L301,76A120,120,0,0,1,371.5342302750968,293.08203932499373L301,196A0,0,0,0,0,301,196" stroke="#ffffff" stroke-width="1" fill="#3366cc"></path><text text-anchor="start" x="376.0733084671091" y="171.93324736663985" font-family="Arial" font-size="13" stroke="none" stroke-width="0" fill="#ffffff">40%</text></g><g><path d="M301,196L239.45208671129126,92.98614476777608A120,120,0,0,1,301,76L301,196A0,0,0,0,0,301,196" stroke="#ffffff" stroke-width="1" fill="#0099c6"></path><text text-anchor="start" x="260.46479681637874" y="108.02526923610172" font-family="Arial" font-size="13" stroke="none" stroke-width="0" fill="#ffffff">8.6%</text></g><g><path d="M301,196L186.87321804458156,158.91796067500627A120,120,0,0,1,239.45208671129126,92.98614476777608L301,196A0,0,0,0,0,301,196" stroke="#ffffff" stroke-width="1" fill="#990099"></path><text text-anchor="start" x="213.47312084474214" y="145.5029007560804" font-family="Arial" font-size="13" stroke="none" stroke-width="0" fill="#ffffff">11.4%</text></g><g><path d="M301,196L200.85120955344368,262.10763777425234A120,120,0,0,1,186.87321804458156,158.91796067500627L301,196A0,0,0,0,0,301,196" stroke="#ffffff" stroke-width="1" fill="#109618"></path><text text-anchor="start" x="195.5722133114072" y="212.3251687801939" font-family="Arial" font-size="13" stroke="none" stroke-width="0" fill="#ffffff">14.3%</text></g><g><path d="M301,196L290.24328293158806,315.5169152794287A120,120,0,0,1,200.85120955344377,262.1076377742524L301,196A0,0,0,0,0,301,196" stroke="#ffffff" stroke-width="1" fill="#ff9900"></path><text text-anchor="start" x="235.72707121503697" y="278.834696542673" font-family="Arial" font-size="13" stroke="none" stroke-width="0" fill="#ffffff">14.3%</text></g><g><path d="M301,196L371.5342302750968,293.08203932499373A120,120,0,0,1,290.24328293158794,315.5169152794287L301,196A0,0,0,0,0,301,196" stroke="#ffffff" stroke-width="1" fill="#dc3912"></path><text text-anchor="start" x="307.66542111367914" y="291.73485552512767" font-family="Arial" font-size="13" stroke="none" stroke-width="0" fill="#ffffff">11.4%</text></g><g><g><g><text text-anchor="end" x="486" y="162.03269468479607" font-family="Arial" font-size="13" stroke="none" stroke-width="0" fill="#222222">Java</text></g><g><text text-anchor="end" x="486" y="183.06730531520395" font-family="Arial" font-size="13" stroke="none" stroke-width="0" fill="#9e9e9e">40%</text></g></g><g><path d="M387.5,168.5L434,168.5L434,168.5L486.5,168.5" stroke="#636363" stroke-width="1" stroke-opacity="0.7" fill-opacity="1" fill="none"></path><circle cx="387.5" cy="168.5" r="2" stroke="none" stroke-width="0" fill-opacity="0.7" fill="#636363"></circle></g><g><g><text text-anchor="end" x="486" y="277.03269468479607" font-family="Arial" font-size="13" stroke="none" stroke-width="0" fill="#222222">Javas…</text><rect x="439" y="265.98269468479606" width="47" height="13" stroke="none" stroke-width="0" fill-opacity="0" fill="#ffffff"></rect></g><g><text text-anchor="end" x="486" y="298.06730531520395" font-family="Arial" font-size="13" stroke="none" stroke-width="0" fill="#9e9e9e">11.4%</text></g></g><g><path d="M325.5,283.5L434,283.5L434,283.5L486.5,283.5" stroke="#636363" stroke-width="1" stroke-opacity="0.7" fill-opacity="1" fill="none"></path><circle cx="325.5" cy="283.5" r="2" stroke="none" stroke-width="0" fill-opacity="0.7" fill="#636363"></circle></g><g><g><text text-anchor="start" x="115" y="267.03269468479607" font-family="Arial" font-size="13" stroke="none" stroke-width="0" fill="#222222">C</text></g><g><text text-anchor="start" x="115" y="288.06730531520395" font-family="Arial" font-size="13" stroke="none" stroke-width="0" fill="#9e9e9e">14.3%</text></g></g><g><path d="M255.5,273.5L168,273.5L168,273.5L115.5,273.5" stroke="#636363" stroke-width="1" stroke-opacity="0.7" fill-opacity="1" fill="none"></path><circle cx="255.5" cy="273.5" r="2" stroke="none" stroke-width="0" fill-opacity="0.7" fill="#636363"></circle></g><g><g><text text-anchor="start" x="115" y="202.03269468479607" font-family="Arial" font-size="13" stroke="none" stroke-width="0" fill="#222222">C++</text></g><g><text text-anchor="start" x="115" y="223.06730531520395" font-family="Arial" font-size="13" stroke="none" stroke-width="0" fill="#9e9e9e">14.3%</text></g></g><g><path d="M212.5,208.5L168,208.5L168,208.5L115.5,208.5" stroke="#636363" stroke-width="1" stroke-opacity="0.7" fill-opacity="1" fill="none"></path><circle cx="212.5" cy="208.5" r="2" stroke="none" stroke-width="0" fill-opacity="0.7" fill="#636363"></circle></g><g><g><text text-anchor="start" x="115" y="137.03269468479604" font-family="Arial" font-size="13" stroke="none" stroke-width="0" fill="#222222">Solidity</text></g><g><text text-anchor="start" x="115" y="158.06730531520395" font-family="Arial" font-size="13" stroke="none" stroke-width="0" fill="#9e9e9e">11.4%</text></g></g><g><path d="M228.5,143.5L168,143.5L168,143.5L115.5,143.5" stroke="#636363" stroke-width="1" stroke-opacity="0.7" fill-opacity="1" fill="none"></path><circle cx="228.5" cy="143.5" r="2" stroke="none" stroke-width="0" fill-opacity="0.7" fill="#636363"></circle></g><g><g><text text-anchor="start" x="115" y="100.03269468479604" font-family="Arial" font-size="13" stroke="none" stroke-width="0" fill="#222222">PHP</text></g><g><text text-anchor="start" x="115" y="121.06730531520395" font-family="Arial" font-size="13" stroke="none" stroke-width="0" fill="#9e9e9e">8.6%</text></g></g><g><path d="M279.5,109.5L168,109.5L168,106.5L115.5,106.5" stroke="#636363" stroke-width="1" stroke-opacity="0.7" fill-opacity="1" fill="none"></path><circle cx="279.5" cy="109.5" r="2" stroke="none" stroke-width="0" fill-opacity="0.7" fill="#636363"></circle></g></g><g></g></svg>